<svg width="40" height="40" viewBox="0 0 40 40" fill="none" xmlns="http://www.w3.org/2000/svg">
<g clip-path="url(#clip0_1467_1056)">
<path d="M23.9323 2.05164L26.1299 5.20249L29.9111 4.52811C33.194 3.94266 36.0573 6.80598 35.4719 10.0889L34.7975 13.8701L37.9484 16.0677C40.6839 17.9751 40.6839 22.024 37.9484 23.9323L34.7975 26.1299L35.4719 29.9111C36.0573 33.194 33.194 36.0573 29.9111 35.4719L26.1299 34.7975L23.9323 37.9484C22.0249 40.6839 17.976 40.6839 16.0677 37.9484L13.8701 34.7975L10.0889 35.4719C6.80598 36.0573 3.94266 33.194 4.52811 29.9111L5.20249 26.1299L2.05164 23.9323C-0.683879 22.0249 -0.683879 17.976 2.05164 16.0677L5.20249 13.8701L4.52811 10.0889C3.94266 6.80598 6.80598 3.94266 10.0889 4.52811L13.8701 5.20249L16.0677 2.05164C17.9751 -0.683879 22.024 -0.683879 23.9323 2.05164Z" fill="#FF553E"/>
<path d="M14.6654 23.5817H13.0399L10.0065 18.8098V23.5817H8.57031V16.4194H10.1959L13.2292 21.201V16.4194H14.6654V23.5817Z" fill="white"/>
<path d="M20.8263 17.6475H17.3776V19.282H20.3256V20.5102H17.3776V22.3528H20.8263V23.5817H15.9414V16.4194H20.8263V17.6483V17.6475Z" fill="white"/>
<path d="M29.5577 23.5817H28.3199L26.6756 18.8L25.2207 23.5817H23.9828L21.6582 16.4194H23.17L24.6062 20.993L25.8815 16.4291H27.4502L28.8018 20.993L29.917 16.4194H31.4288L29.5577 23.5817Z" fill="white"/>
</g>
<defs>
<clipPath id="clip0_1467_1056">
<rect width="40" height="40" fill="white"/>
</clipPath>
</defs>
</svg>
