<svg width="40" height="40" viewBox="0 0 40 40" fill="none" xmlns="http://www.w3.org/2000/svg">
<g clip-path="url(#clip0_1467_1062)">
<path d="M34.4308 12.5313H5.56939C4.70372 12.5313 4.00195 13.2286 4.00195 14.0888V34.4425C4.00195 35.3027 4.70372 36 5.56939 36H34.4308C35.2965 36 35.9983 35.3027 35.9983 34.4425V14.0888C35.9983 13.2286 35.2965 12.5313 34.4308 12.5313Z" fill="#E0D3FA"/>
<path d="M36.6951 5.69468C36.2744 4.66981 35.2708 4 34.1558 4H5.84551C4.7317 4 3.72813 4.66981 3.30618 5.69468L1 11.3075H39L36.6938 5.69468H36.6951Z" fill="#BEA3F2"/>
<path d="M12.9713 21H27.5287C28.4782 21 29.25 21.8835 29.25 22.9733V36H11.25V22.9733C11.25 21.8848 12.0207 21 12.9713 21Z" fill="#D5C4F5"/>
<path d="M29.5003 11.3075H1V12.0919C1 14.6994 3.12625 16.8121 5.75047 16.8121C8.37344 16.8121 10.5009 14.6994 10.5009 12.0919C10.5009 14.6981 12.6272 16.8121 15.2514 16.8121C17.8744 16.8121 20.0019 14.6994 20.0019 12.0919C20.0019 14.6981 22.1281 16.8121 24.7524 16.8121C27.3753 16.8121 29.5028 14.6994 29.5028 12.0919C29.5028 14.6981 31.6291 16.8121 34.2533 16.8121C36.8763 16.8121 39.0038 14.6994 39.0038 12.0919V11.3075H29.5041H29.5003Z" fill="#917DFF"/>
</g>
<defs>
<clipPath id="clip0_1467_1062">
<rect width="38" height="32" fill="white" transform="translate(1 4)"/>
</clipPath>
</defs>
</svg>
