<svg width="48" height="48" viewBox="0 0 48 48" fill="none" xmlns="http://www.w3.org/2000/svg">
<g clip-path="url(#clip0_1467_1060)">
<path d="M15.0706 37.4063C15.0114 37.205 14.9411 37.0237 14.8552 36.858C14.557 36.2803 14.6889 35.5824 15.2112 35.2039L21.0184 31.0137L16.3759 26.3712L12.1857 32.1784C11.8094 32.6985 11.1093 32.8326 10.5316 32.5344C10.3659 32.4485 10.1846 32.3782 9.98335 32.319C8.948 32.0246 7.83099 32.2477 7.07888 33.0043C5.90967 34.178 5.97068 36.1205 7.24778 37.2512C7.68768 37.6378 8.2204 37.8732 8.77225 37.9503C9.12302 37.9993 9.39255 38.2688 9.44157 38.6196C9.51862 39.1714 9.75183 39.7064 10.1407 40.1441C11.2691 41.4234 13.2094 41.4822 14.3875 40.313C15.1419 39.5586 15.3694 38.4416 15.0729 37.4085L15.0706 37.4063Z" fill="#FFC180"/>
<path d="M40.4199 10.696C39.3776 9.26762 38.122 8.01208 36.6937 6.96978C32.1485 3.65377 25.9054 4.1066 21.9761 8.03589L20.0214 9.99055C19.2972 10.9348 12.1012 20.5342 15.8215 27.6757C16.2055 28.4103 16.7303 29.1747 17.4649 29.9225C18.2127 30.6571 18.9771 31.1819 19.7117 31.5659C26.8532 35.2862 36.4548 28.0924 37.3969 27.366L39.3515 25.4113C43.283 21.4798 43.7336 15.2389 40.4176 10.6937L40.4199 10.696Z" fill="#E25A00"/>
</g>
<defs>
<clipPath id="clip0_1467_1060">
<rect width="24.5726" height="42.4435" fill="white" transform="translate(30.0117) rotate(45)"/>
</clipPath>
</defs>
</svg>
