<svg width="48" height="48" viewBox="0 0 48 48" fill="none" xmlns="http://www.w3.org/2000/svg">
<g clip-path="url(#clip0_1467_1057)">
<path d="M43.8769 21.4058C43.311 20.2348 42.8409 19.3381 42.4556 18.7614C41.2542 16.9549 39.278 13.9949 36.1612 10.8782C33.0445 7.76144 30.1324 5.74602 28.278 4.57942C27.6904 4.20942 26.8024 3.72624 25.6336 3.15818C23.9468 2.342 21.9162 2.91877 20.9128 4.50107C18.2923 8.63203 15.452 14.0841 13.3343 20.8247C11.6802 26.0961 10.8531 30.9366 10.457 35.0023C10.3678 35.9098 11.1274 36.6694 12.035 36.5802C16.1028 36.1819 20.9411 35.357 26.2126 33.7029C32.9575 31.5852 38.4095 28.7449 42.5405 26.1244C44.1206 25.1232 44.693 23.0926 43.879 21.408L43.8769 21.4058Z" fill="#FFC14F"/>
<path d="M27.5345 24.1938C28.8783 25.5376 31.0572 25.5376 32.4011 24.1938C33.745 22.8499 33.745 20.671 32.4011 19.3272C31.0572 17.9833 28.8783 17.9833 27.5345 19.3272C26.1906 20.671 26.1906 22.8499 27.5345 24.1938Z" fill="#FF683E"/>
<path d="M23.4854 8.40567C26.5194 10.3123 29.3532 12.5758 31.9084 15.131C35.2732 18.4958 37.4323 21.7431 38.5902 23.4887C39.0255 24.146 39.5283 25.071 40.216 26.4944C40.3488 26.7708 40.4554 27.0516 40.549 27.3367C41.2433 26.9297 41.9071 26.5227 42.5383 26.1222C44.1184 25.121 44.6909 23.0904 43.8769 21.4058C43.311 20.2348 42.8409 19.3381 42.4556 18.7614C41.2542 16.9549 39.278 13.9949 36.1612 10.8782C33.0445 7.76144 30.1324 5.74602 28.278 4.57942C27.6904 4.20942 26.8024 3.72624 25.6336 3.15818C23.9468 2.342 21.9162 2.91877 20.9128 4.50107C20.5123 5.13225 20.1097 5.79607 19.7005 6.48819C19.9856 6.58178 20.2664 6.68843 20.5428 6.8212C21.7421 7.40232 22.7563 7.95079 23.4832 8.40785L23.4854 8.40567Z" fill="#DB6E00"/>
<path d="M19.925 12.1926C19.2045 11.4722 18.371 10.9346 17.4786 10.5777C15.9812 13.5725 14.5404 16.9896 13.3368 20.8224C12.9755 21.9759 12.6555 23.1055 12.3682 24.2111C14.9256 25.1057 17.8791 24.5289 19.9228 22.4852C22.7674 19.6405 22.7674 15.0308 19.9228 12.1861L19.925 12.1926Z" fill="#FF683E"/>
<path d="M27.928 33.1369C27.6973 32.0791 27.175 31.0692 26.3501 30.2444C24.0626 27.9569 20.3517 27.9547 18.062 30.2444C16.5059 31.8005 16.0096 34.0118 16.5711 35.9881C19.542 35.5027 22.7828 34.778 26.213 33.7028C26.7962 33.52 27.3643 33.3306 27.928 33.1369Z" fill="#FF683E"/>
</g>
<defs>
<clipPath id="clip0_1467_1057">
<rect width="30.7585" height="35.7634" fill="white" transform="translate(25.2881) rotate(45)"/>
</clipPath>
</defs>
</svg>
