<svg width="40" height="40" viewBox="0 0 40 40" fill="none" xmlns="http://www.w3.org/2000/svg">
<g clip-path="url(#clip0_1467_1061)">
<path d="M37.0919 13.6827C36.7291 12.1949 35.7641 9.43942 33.1462 7.14537C30.1144 4.48798 26.7439 4.08487 25.6553 4H14.345C13.2564 4.08487 9.88591 4.48798 6.85675 7.14537C4.23882 9.44207 3.27121 12.1976 2.91104 13.6827C2.59388 14.9902 3.06693 16.3958 4.19581 17.149C4.71994 17.4991 5.35157 17.7033 6.03159 17.7033H33.9687C34.6487 17.7033 35.2803 17.4991 35.8045 17.149C36.9333 16.3958 37.4091 14.9902 37.0892 13.6827H37.0919Z" fill="#FF7D49"/>
<path d="M19.9995 28.6617H4.30273C4.30273 32.7141 7.63293 36.0001 11.7399 36.0001H28.2619C32.3689 36.0001 35.6991 32.7141 35.6991 28.6617H19.9995Z" fill="#FF7D49"/>
<path d="M35.8769 20.5436H30.4072L25.7008 23.689V23.6705L20.9945 20.5251H4.1231C1.84653 20.5251 0 22.3471 0 24.5934C0 26.8397 1.84653 28.6617 4.1231 28.6617H25.7008V28.6802H35.8769C38.1535 28.6802 40 26.8583 40 24.6119C40 22.3656 38.1535 20.5436 35.8769 20.5436Z" fill="#73C90B"/>
<path d="M15.0116 12.9773C14.681 12.9773 14.3504 12.8527 14.0977 12.6034C13.5924 12.1048 13.5924 11.2985 14.0977 10.7999L16.2614 8.66502C16.7667 8.16643 17.5838 8.16643 18.0891 8.66502C18.5944 9.16361 18.5944 9.96984 18.0891 10.4684L15.9254 12.6034C15.6728 12.8527 15.3422 12.9773 15.0116 12.9773Z" fill="#FFB294"/>
<path d="M25.5153 12.4893C25.3943 12.4893 25.2707 12.4761 25.1497 12.4522C25.0288 12.4283 24.9105 12.3939 24.7976 12.3461C24.682 12.301 24.5745 12.2427 24.4724 12.1764C24.3702 12.1101 24.2735 12.0305 24.1875 11.9457C24.0988 11.8608 24.0208 11.7653 23.951 11.6645C23.8838 11.5638 23.8246 11.455 23.7789 11.3436C23.7306 11.2296 23.6956 11.1129 23.6714 10.9962C23.6472 10.8769 23.6338 10.7549 23.6338 10.6329C23.6338 10.5109 23.6472 10.3889 23.6714 10.2695C23.6956 10.1528 23.7306 10.0335 23.7789 9.92212C23.8246 9.81073 23.8838 9.702 23.951 9.60122C24.0208 9.50044 24.0988 9.40496 24.1875 9.3201C24.2735 9.23523 24.3702 9.15832 24.4724 9.08937C24.5745 9.02306 24.682 8.96472 24.7976 8.91963C24.9105 8.87189 25.0288 8.83742 25.1497 8.81355C25.3916 8.76316 25.6416 8.76316 25.8835 8.81355C26.0044 8.83742 26.1227 8.87189 26.2356 8.91963C26.3485 8.96472 26.4587 9.02306 26.5608 9.08937C26.663 9.15832 26.7597 9.23523 26.8457 9.3201C26.9344 9.40496 27.0124 9.50044 27.0796 9.60122C27.1494 9.702 27.2059 9.81073 27.2543 9.92212C27.3 10.0335 27.3376 10.1528 27.3618 10.2695C27.386 10.3889 27.3967 10.5109 27.3967 10.6329C27.3967 10.7549 27.386 10.8769 27.3618 10.9962C27.3376 11.1129 27.3 11.2296 27.2543 11.3436C27.2059 11.455 27.1494 11.5638 27.0796 11.6645C27.0124 11.7653 26.9344 11.8608 26.8457 11.9457C26.7597 12.0305 26.663 12.1101 26.5608 12.1764C26.4587 12.2427 26.3485 12.301 26.2356 12.3461C26.1227 12.3939 26.0044 12.4283 25.8835 12.4522C25.7625 12.4761 25.6389 12.4893 25.5153 12.4893Z" fill="#FFB294"/>
<path d="M0 24.5934C0 26.8397 1.84653 28.6617 4.1231 28.6617H25.7008V28.6803H35.8769C38.1535 28.6803 40 26.8583 40 24.612C40 24.4688 39.9919 24.3282 39.9785 24.1903H0.0215025C0.00806343 24.3229 0 24.4555 0 24.5934Z" fill="#B92E00"/>
</g>
<defs>
<clipPath id="clip0_1467_1061">
<rect width="40" height="32" fill="white" transform="translate(0 4)"/>
</clipPath>
</defs>
</svg>
