<svg width="101" height="101" viewBox="0 0 101 101" fill="none" xmlns="http://www.w3.org/2000/svg">
<path d="M58.9787 78.4501C60.3649 77.8458 60.9415 76.961 61.3583 76.4404C65.0995 71.7675 57.1171 57.8974 45.7209 49.8717C33.6425 39.3545 20.3435 35.7707 16.6024 40.4437C15.9602 41.2456 15.457 42.3381 15.2474 43.571L8.14585 84.4297C7.89927 89.4106 9.80302 91.3034 10.7557 92.228C12.4821 93.9036 15.8392 95.3286 19.3407 94.0957C32.8534 88.8928 45.5124 84.3208 58.9787 78.4501Z" fill="url(#paint0_linear_1899_1921)"/>
<path d="M58.9787 78.4501C60.3649 77.8458 60.9415 76.961 61.3583 76.4404C65.0995 71.7675 57.1171 57.8974 45.7209 49.8717C33.6425 39.3545 20.3435 35.7707 16.6024 40.4437C15.9602 41.2456 15.457 42.3381 15.2474 43.571L8.14585 84.4297C7.89927 89.4106 9.80302 91.3034 10.7557 92.228C12.4821 93.9036 15.8392 95.3286 19.3407 94.0957C32.8534 88.8928 45.5124 84.3208 58.9787 78.4501Z" fill="url(#paint1_linear_1899_1921)"/>
<path d="M58.9787 78.4501C60.3649 77.8458 60.9415 76.961 61.3583 76.4404C65.0995 71.7675 57.1171 57.8974 45.7209 49.8717C33.6425 39.3545 20.3435 35.7707 16.6024 40.4437C15.9602 41.2456 15.457 42.3381 15.2474 43.571L8.14585 84.4297C7.89927 89.4106 9.80302 91.3034 10.7557 92.228C12.4821 93.9036 15.8392 95.3286 19.3407 94.0957C32.8534 88.8928 45.5124 84.3208 58.9787 78.4501Z" fill="url(#paint2_linear_1899_1921)"/>
<path d="M58.9787 78.4501C60.3649 77.8458 60.9415 76.961 61.3583 76.4404C65.0995 71.7675 57.1171 57.8974 45.7209 49.8717C33.6425 39.3545 20.3435 35.7707 16.6024 40.4437C15.9602 41.2456 15.457 42.3381 15.2474 43.571L8.14585 84.4297C7.89927 89.4106 9.80302 91.3034 10.7557 92.228C12.4821 93.9036 15.8392 95.3286 19.3407 94.0957C32.8534 88.8928 45.5124 84.3208 58.9787 78.4501Z" fill="url(#paint3_linear_1899_1921)"/>
<path d="M58.9787 78.4501C60.3649 77.8458 60.9415 76.961 61.3583 76.4404C65.0995 71.7675 57.1171 57.8974 45.7209 49.8717C33.6425 39.3545 20.3435 35.7707 16.6024 40.4437C15.9602 41.2456 15.457 42.3381 15.2474 43.571L8.14585 84.4297C7.89927 89.4106 9.80302 91.3034 10.7557 92.228C12.4821 93.9036 15.8392 95.3286 19.3407 94.0957C32.8534 88.8928 45.5124 84.3208 58.9787 78.4501Z" fill="url(#paint4_radial_1899_1921)"/>
<ellipse cx="39.6256" cy="57.4022" rx="25.661" ry="9.2016" transform="rotate(39.7456 39.6256 57.4022)" fill="url(#paint5_linear_1899_1921)"/>
<ellipse cx="39.6256" cy="57.4022" rx="25.661" ry="9.2016" transform="rotate(39.7456 39.6256 57.4022)" fill="url(#paint6_radial_1899_1921)"/>
<ellipse cx="39.6256" cy="57.4022" rx="25.661" ry="9.2016" transform="rotate(39.7456 39.6256 57.4022)" fill="url(#paint7_radial_1899_1921)"/>
<circle cx="47.2046" cy="50.5" r="3.79736" fill="url(#paint8_radial_1899_1921)"/>
<circle cx="47.2046" cy="50.5" r="3.79736" fill="url(#paint9_radial_1899_1921)"/>
<circle cx="78.3726" cy="72.2979" r="3.79736" fill="url(#paint10_radial_1899_1921)"/>
<circle cx="78.3726" cy="72.2979" r="3.79736" fill="url(#paint11_radial_1899_1921)"/>
<circle cx="78.3726" cy="72.2979" r="3.79736" fill="url(#paint12_radial_1899_1921)"/>
<circle cx="75.1919" cy="22.1431" r="3.79736" fill="url(#paint13_radial_1899_1921)"/>
<circle cx="75.1919" cy="22.1431" r="3.79736" fill="url(#paint14_radial_1899_1921)"/>
<circle cx="31.5337" cy="10.6277" r="3.79736" fill="url(#paint15_radial_1899_1921)"/>
<circle cx="31.5337" cy="10.6277" r="3.79736" fill="url(#paint16_radial_1899_1921)"/>
<circle cx="31.5337" cy="10.6277" r="3.79736" fill="url(#paint17_radial_1899_1921)"/>
<circle cx="15.5552" cy="25.5952" r="3.79736" fill="url(#paint18_radial_1899_1921)"/>
<circle cx="15.5552" cy="25.5952" r="3.79736" fill="url(#paint19_radial_1899_1921)"/>
<path fill-rule="evenodd" clip-rule="evenodd" d="M60.2973 6.57218C61.9515 6.64952 63.2297 8.0532 63.1524 9.70738C63.0459 11.9849 62.6314 15.7789 61.642 19.8316C60.8151 23.219 59.5418 26.9762 57.5814 30.1974C58.0555 32.7104 58.0682 35.6756 57.5478 39.0474C57.2952 40.684 55.7637 41.806 54.1271 41.5534C52.4905 41.3008 51.3685 39.7693 51.6211 38.1327C51.7375 37.3783 51.8201 36.6718 51.8732 36.0106C51.2912 36.3141 50.6951 36.552 50.0867 36.722C47.7096 37.3862 45.4298 36.9258 43.6466 35.7379C40.2586 33.481 38.6964 28.5421 41.3189 24.5045C43.8136 20.6634 49.013 19.6191 52.9667 22.3519C53.4225 22.667 53.8507 23.022 54.2496 23.416C54.8804 21.8208 55.399 20.1186 55.8162 18.4093C56.7037 14.774 57.0714 11.3664 57.1621 9.42731C57.2394 7.77312 58.6431 6.49484 60.2973 6.57218ZM50.9953 29.1093C50.5401 28.1615 49.9995 27.591 49.5569 27.285C48.32 26.4301 46.9603 26.8282 46.3481 27.7709C45.6916 28.7816 46.0388 30.1259 46.9713 30.747C47.3482 30.9981 47.8314 31.1256 48.4729 30.9463C49.0533 30.7842 49.9417 30.3132 50.9953 29.1093Z" fill="url(#paint20_linear_1899_1921)"/>
<path fill-rule="evenodd" clip-rule="evenodd" d="M60.2973 6.57218C61.9515 6.64952 63.2297 8.0532 63.1524 9.70738C63.0459 11.9849 62.6314 15.7789 61.642 19.8316C60.8151 23.219 59.5418 26.9762 57.5814 30.1974C58.0555 32.7104 58.0682 35.6756 57.5478 39.0474C57.2952 40.684 55.7637 41.806 54.1271 41.5534C52.4905 41.3008 51.3685 39.7693 51.6211 38.1327C51.7375 37.3783 51.8201 36.6718 51.8732 36.0106C51.2912 36.3141 50.6951 36.552 50.0867 36.722C47.7096 37.3862 45.4298 36.9258 43.6466 35.7379C40.2586 33.481 38.6964 28.5421 41.3189 24.5045C43.8136 20.6634 49.013 19.6191 52.9667 22.3519C53.4225 22.667 53.8507 23.022 54.2496 23.416C54.8804 21.8208 55.399 20.1186 55.8162 18.4093C56.7037 14.774 57.0714 11.3664 57.1621 9.42731C57.2394 7.77312 58.6431 6.49484 60.2973 6.57218ZM50.9953 29.1093C50.5401 28.1615 49.9995 27.591 49.5569 27.285C48.32 26.4301 46.9603 26.8282 46.3481 27.7709C45.6916 28.7816 46.0388 30.1259 46.9713 30.747C47.3482 30.9981 47.8314 31.1256 48.4729 30.9463C49.0533 30.7842 49.9417 30.3132 50.9953 29.1093Z" fill="url(#paint21_radial_1899_1921)"/>
<path fill-rule="evenodd" clip-rule="evenodd" d="M60.2973 6.57218C61.9515 6.64952 63.2297 8.0532 63.1524 9.70738C63.0459 11.9849 62.6314 15.7789 61.642 19.8316C60.8151 23.219 59.5418 26.9762 57.5814 30.1974C58.0555 32.7104 58.0682 35.6756 57.5478 39.0474C57.2952 40.684 55.7637 41.806 54.1271 41.5534C52.4905 41.3008 51.3685 39.7693 51.6211 38.1327C51.7375 37.3783 51.8201 36.6718 51.8732 36.0106C51.2912 36.3141 50.6951 36.552 50.0867 36.722C47.7096 37.3862 45.4298 36.9258 43.6466 35.7379C40.2586 33.481 38.6964 28.5421 41.3189 24.5045C43.8136 20.6634 49.013 19.6191 52.9667 22.3519C53.4225 22.667 53.8507 23.022 54.2496 23.416C54.8804 21.8208 55.399 20.1186 55.8162 18.4093C56.7037 14.774 57.0714 11.3664 57.1621 9.42731C57.2394 7.77312 58.6431 6.49484 60.2973 6.57218ZM50.9953 29.1093C50.5401 28.1615 49.9995 27.591 49.5569 27.285C48.32 26.4301 46.9603 26.8282 46.3481 27.7709C45.6916 28.7816 46.0388 30.1259 46.9713 30.747C47.3482 30.9981 47.8314 31.1256 48.4729 30.9463C49.0533 30.7842 49.9417 30.3132 50.9953 29.1093Z" fill="url(#paint22_radial_1899_1921)"/>
<path fill-rule="evenodd" clip-rule="evenodd" d="M60.2973 6.57218C61.9515 6.64952 63.2297 8.0532 63.1524 9.70738C63.0459 11.9849 62.6314 15.7789 61.642 19.8316C60.8151 23.219 59.5418 26.9762 57.5814 30.1974C58.0555 32.7104 58.0682 35.6756 57.5478 39.0474C57.2952 40.684 55.7637 41.806 54.1271 41.5534C52.4905 41.3008 51.3685 39.7693 51.6211 38.1327C51.7375 37.3783 51.8201 36.6718 51.8732 36.0106C51.2912 36.3141 50.6951 36.552 50.0867 36.722C47.7096 37.3862 45.4298 36.9258 43.6466 35.7379C40.2586 33.481 38.6964 28.5421 41.3189 24.5045C43.8136 20.6634 49.013 19.6191 52.9667 22.3519C53.4225 22.667 53.8507 23.022 54.2496 23.416C54.8804 21.8208 55.399 20.1186 55.8162 18.4093C56.7037 14.774 57.0714 11.3664 57.1621 9.42731C57.2394 7.77312 58.6431 6.49484 60.2973 6.57218ZM50.9953 29.1093C50.5401 28.1615 49.9995 27.591 49.5569 27.285C48.32 26.4301 46.9603 26.8282 46.3481 27.7709C45.6916 28.7816 46.0388 30.1259 46.9713 30.747C47.3482 30.9981 47.8314 31.1256 48.4729 30.9463C49.0533 30.7842 49.9417 30.3132 50.9953 29.1093Z" fill="url(#paint23_radial_1899_1921)"/>
<path d="M50.35 82.0915C42.125 81.52 36.356 79.0583 27.0095 71.3361C18.9692 64.6933 14.9774 58.8 13.6451 52.7905L12.1016 61.6712C12.7324 65.1469 15.4448 70.0046 20.8203 74.8623C27.8508 81.2156 34.8508 85.7119 41.7733 85.5148C44.6224 84.4022 47.4755 83.2678 50.35 82.0915Z" fill="url(#paint24_radial_1899_1921)"/>
<path d="M33.0043 88.8892C29.0512 89.1096 23.7051 85.8845 18.157 81.2735C13.4226 77.1802 11.0873 72.7331 10.5958 70.3335L9.02832 79.3519C9.41604 80.8765 10.5968 82.9487 14.0144 86.4517C17.836 90.3688 21.679 91.8931 23.9612 92.3266C25.5806 91.7094 27.1902 91.0983 28.793 90.4897C30.2014 89.955 31.6044 89.4223 33.0043 88.8892Z" fill="url(#paint25_radial_1899_1921)"/>
<path fill-rule="evenodd" clip-rule="evenodd" d="M88.0693 41.3742C76.7136 39.1558 70.0035 44.3582 67.8765 46.6914C66.6435 48.044 64.5473 48.141 63.1947 46.9079C61.8421 45.6749 61.7452 43.5787 62.9782 42.2261C66.2761 38.6085 75.1993 32.1066 89.3401 34.8691C91.1365 35.22 92.3082 36.9607 91.9573 38.7571C91.6064 40.5534 89.8657 41.7252 88.0693 41.3742Z" fill="url(#paint26_radial_1899_1921)"/>
<path fill-rule="evenodd" clip-rule="evenodd" d="M88.0693 41.3742C76.7136 39.1558 70.0035 44.3582 67.8765 46.6914C66.6435 48.044 64.5473 48.141 63.1947 46.9079C61.8421 45.6749 61.7452 43.5787 62.9782 42.2261C66.2761 38.6085 75.1993 32.1066 89.3401 34.8691C91.1365 35.22 92.3082 36.9607 91.9573 38.7571C91.6064 40.5534 89.8657 41.7252 88.0693 41.3742Z" fill="url(#paint27_radial_1899_1921)"/>
<path d="M40.5742 25.9176C40.768 25.4384 41.0129 24.9656 41.3124 24.5046C43.8071 20.6635 49.0065 19.6192 52.9602 22.352C53.416 22.6672 53.8442 23.0222 54.2431 23.4161C54.372 23.0902 54.4962 22.7598 54.6158 22.4258C54.6217 22.446 54.6275 22.4661 54.6332 22.4861C53.8211 25.0443 51.9986 27.783 50.9863 29.1042C50.5316 28.1595 49.9922 27.5906 49.5503 27.2852C48.3135 26.4302 46.9538 26.8284 46.3416 27.771C46.3178 27.8077 46.2953 27.8448 46.2741 27.8823L40.5742 25.9176Z" fill="url(#paint28_radial_1899_1921)"/>
<path d="M40.5742 25.9176C40.768 25.4384 41.0129 24.9656 41.3124 24.5046C43.8071 20.6635 49.0065 19.6192 52.9602 22.352C53.416 22.6672 53.8442 23.0222 54.2431 23.4161C54.372 23.0902 54.4962 22.7598 54.6158 22.4258C54.6217 22.446 54.6275 22.4661 54.6332 22.4861C53.8211 25.0443 51.9986 27.783 50.9863 29.1042C50.5316 28.1595 49.9922 27.5906 49.5503 27.2852C48.3135 26.4302 46.9538 26.8284 46.3416 27.771C46.3178 27.8077 46.2953 27.8448 46.2741 27.8823L40.5742 25.9176Z" fill="url(#paint29_radial_1899_1921)"/>
<path d="M54.5527 53.191C67.6744 46.5768 82.1424 50.1664 88.0381 52.5035C90.0637 53.3065 91.055 55.6 90.252 57.6256C89.4489 59.6509 87.1563 60.6422 85.1309 59.8395C80.078 57.8364 68.2615 55.1171 58.1045 60.2369C51.4061 63.6134 46.4261 68.1536 43.6895 71.3502C41.5299 70.1563 39.2798 68.7092 37.0156 67.0397C40.4447 62.7899 46.5681 57.2159 54.5527 53.191Z" fill="url(#paint30_linear_1899_1921)"/>
<path d="M54.5527 53.191C67.6744 46.5768 82.1424 50.1664 88.0381 52.5035C90.0637 53.3065 91.055 55.6 90.252 57.6256C89.4489 59.6509 87.1563 60.6422 85.1309 59.8395C80.078 57.8364 68.2615 55.1171 58.1045 60.2369C51.4061 63.6134 46.4261 68.1536 43.6895 71.3502C41.5299 70.1563 39.2798 68.7092 37.0156 67.0397C40.4447 62.7899 46.5681 57.2159 54.5527 53.191Z" fill="url(#paint31_radial_1899_1921)"/>
<path d="M54.5527 53.191C67.6744 46.5768 82.1424 50.1664 88.0381 52.5035C90.0637 53.3065 91.055 55.6 90.252 57.6256C89.4489 59.6509 87.1563 60.6422 85.1309 59.8395C80.078 57.8364 68.2615 55.1171 58.1045 60.2369C51.4061 63.6134 46.4261 68.1536 43.6895 71.3502C41.5299 70.1563 39.2798 68.7092 37.0156 67.0397C40.4447 62.7899 46.5681 57.2159 54.5527 53.191Z" fill="url(#paint32_radial_1899_1921)"/>
<path d="M54.5527 53.191C67.6744 46.5768 82.1424 50.1664 88.0381 52.5035C90.0637 53.3065 91.055 55.6 90.252 57.6256C89.4489 59.6509 87.1563 60.6422 85.1309 59.8395C80.078 57.8364 68.2615 55.1171 58.1045 60.2369C51.4061 63.6134 46.4261 68.1536 43.6895 71.3502C41.5299 70.1563 39.2798 68.7092 37.0156 67.0397C40.4447 62.7899 46.5681 57.2159 54.5527 53.191Z" fill="url(#paint33_radial_1899_1921)"/>
<path d="M26.8027 19.4709C28.7066 18.4116 31.1084 19.0956 32.168 20.9993C33.9709 24.2393 36.6368 29.5755 36.9766 36.6165C37.305 43.4251 35.442 51.4328 29.2949 60.3752C27.2112 58.3203 25.3893 56.2517 23.8809 54.2551C28.2406 47.3266 29.3153 41.5517 29.0957 36.9973C28.8436 31.771 26.8733 27.7114 25.2734 24.8362C24.214 22.9322 24.8988 20.5304 26.8027 19.4709Z" fill="url(#paint34_radial_1899_1921)"/>
<path d="M26.8027 19.4709C28.7066 18.4116 31.1084 19.0956 32.168 20.9993C33.9709 24.2393 36.6368 29.5755 36.9766 36.6165C37.305 43.4251 35.442 51.4328 29.2949 60.3752C27.2112 58.3203 25.3893 56.2517 23.8809 54.2551C28.2406 47.3266 29.3153 41.5517 29.0957 36.9973C28.8436 31.771 26.8733 27.7114 25.2734 24.8362C24.214 22.9322 24.8988 20.5304 26.8027 19.4709Z" fill="url(#paint35_radial_1899_1921)"/>
<path d="M57.5754 30.2002C58.049 32.7126 58.0615 35.677 57.5413 39.0475C57.2887 40.6841 55.7572 41.8061 54.1206 41.5535C52.484 41.3009 51.362 39.7694 51.6146 38.1328C51.7308 37.3798 51.8133 36.6745 51.8664 36.0144C54.9657 34.0685 57.0119 31.4794 57.5754 30.2002Z" fill="url(#paint36_radial_1899_1921)"/>
<defs>
<linearGradient id="paint0_linear_1899_1921" x1="13.3241" y1="63.0757" x2="38.7713" y2="85.1694" gradientUnits="userSpaceOnUse">
<stop stop-color="#B3843C"/>
<stop offset="1" stop-color="#F17A61"/>
</linearGradient>
<linearGradient id="paint1_linear_1899_1921" x1="10.5121" y1="66.4949" x2="17.9598" y2="68.0073" gradientUnits="userSpaceOnUse">
<stop stop-color="#B1853B"/>
<stop offset="1" stop-color="#B1853B" stop-opacity="0"/>
</linearGradient>
<linearGradient id="paint2_linear_1899_1921" x1="62.2907" y1="75.2075" x2="49.7196" y2="77.2788" gradientUnits="userSpaceOnUse">
<stop stop-color="#F9C26C"/>
<stop offset="1" stop-color="#F9C26C" stop-opacity="0"/>
</linearGradient>
<linearGradient id="paint3_linear_1899_1921" x1="35.2074" y1="39.1079" x2="27.1327" y2="52.8179" gradientUnits="userSpaceOnUse">
<stop stop-color="#E6BF69"/>
<stop offset="1" stop-color="#E6BF69" stop-opacity="0"/>
</linearGradient>
<radialGradient id="paint4_radial_1899_1921" cx="0" cy="0" r="1" gradientUnits="userSpaceOnUse" gradientTransform="translate(39.7781 56.5163) rotate(-49.3383) scale(13.7402 32.2001)">
<stop stop-color="#F5BD55" stop-opacity="0"/>
<stop offset="0.836376" stop-color="#FCCB57"/>
<stop offset="1" stop-color="#FCCB57" stop-opacity="0"/>
</radialGradient>
<linearGradient id="paint5_linear_1899_1921" x1="16.2468" y1="56.3852" x2="68.2616" y2="58.9275" gradientUnits="userSpaceOnUse">
<stop stop-color="#F3AB2C"/>
<stop offset="1" stop-color="#B57F1E"/>
</linearGradient>
<radialGradient id="paint6_radial_1899_1921" cx="0" cy="0" r="1" gradientUnits="userSpaceOnUse" gradientTransform="translate(26.682 64.7689) rotate(-109.125) scale(20.4446 5.7263)">
<stop offset="0.423414" stop-color="#CA851E"/>
<stop offset="1" stop-color="#CA851E" stop-opacity="0"/>
</radialGradient>
<radialGradient id="paint7_radial_1899_1921" cx="0" cy="0" r="1" gradientUnits="userSpaceOnUse" gradientTransform="translate(48.0872 65.0565) rotate(-73.0972) scale(20.5457 12.0318)">
<stop stop-color="#BC7F28"/>
<stop offset="1" stop-color="#BC7F28" stop-opacity="0"/>
</radialGradient>
<radialGradient id="paint8_radial_1899_1921" cx="0" cy="0" r="1" gradientUnits="userSpaceOnUse" gradientTransform="translate(48.8813 49.4644) rotate(138.668) scale(5.45119)">
<stop stop-color="#5AC0FF"/>
<stop offset="1" stop-color="#3279B6"/>
</radialGradient>
<radialGradient id="paint9_radial_1899_1921" cx="0" cy="0" r="1" gradientUnits="userSpaceOnUse" gradientTransform="translate(47.9517 49.9768) rotate(160.051) scale(5.47416 6.00037)">
<stop offset="0.534713" stop-color="#3A619E" stop-opacity="0"/>
<stop offset="1" stop-color="#3A619E"/>
</radialGradient>
<radialGradient id="paint10_radial_1899_1921" cx="0" cy="0" r="1" gradientUnits="userSpaceOnUse" gradientTransform="translate(80.5729 70.6931) rotate(134.569) scale(6.24157)">
<stop stop-color="#FDD46C"/>
<stop offset="1" stop-color="#F09C53"/>
</radialGradient>
<radialGradient id="paint11_radial_1899_1921" cx="0" cy="0" r="1" gradientUnits="userSpaceOnUse" gradientTransform="translate(79.0796 70.3613) rotate(100.827) scale(6.18255)">
<stop offset="0.792052" stop-color="#E76260" stop-opacity="0"/>
<stop offset="0.964251" stop-color="#E76260"/>
</radialGradient>
<radialGradient id="paint12_radial_1899_1921" cx="0" cy="0" r="1" gradientUnits="userSpaceOnUse" gradientTransform="translate(80.1843 72.9244) rotate(-147.558) scale(6.2611 7.3733)">
<stop offset="0.482355" stop-color="#AA885A" stop-opacity="0"/>
<stop offset="0.90682" stop-color="#AA885A"/>
</radialGradient>
<radialGradient id="paint13_radial_1899_1921" cx="0" cy="0" r="1" gradientUnits="userSpaceOnUse" gradientTransform="translate(77.9113 20.6654) rotate(132.387) scale(6.50225)">
<stop stop-color="#FF46AA"/>
<stop offset="1" stop-color="#E3189D"/>
</radialGradient>
<radialGradient id="paint14_radial_1899_1921" cx="0" cy="0" r="1" gradientUnits="userSpaceOnUse" gradientTransform="translate(76.7947 22.8335) rotate(-173.29) scale(5.90913 7.90825)">
<stop offset="0.522105" stop-color="#B63173" stop-opacity="0"/>
<stop offset="1" stop-color="#B63173"/>
</radialGradient>
<radialGradient id="paint15_radial_1899_1921" cx="0" cy="0" r="1" gradientUnits="userSpaceOnUse" gradientTransform="translate(34.0219 9.10766) rotate(139.574) scale(5.81123)">
<stop stop-color="#FFF46F"/>
<stop offset="1" stop-color="#EFB93C"/>
</radialGradient>
<radialGradient id="paint16_radial_1899_1921" cx="0" cy="0" r="1" gradientUnits="userSpaceOnUse" gradientTransform="translate(33.1907 10.0128) rotate(-178.519) scale(6.04307 5.75376)">
<stop offset="0.558644" stop-color="#AA904B" stop-opacity="0"/>
<stop offset="0.943632" stop-color="#AA904B"/>
</radialGradient>
<radialGradient id="paint17_radial_1899_1921" cx="0" cy="0" r="1" gradientUnits="userSpaceOnUse" gradientTransform="translate(32.5086 8.48242) rotate(102.339) scale(6.46177)">
<stop offset="0.771901" stop-color="#C47072" stop-opacity="0"/>
<stop offset="1" stop-color="#C47072"/>
</radialGradient>
<radialGradient id="paint18_radial_1899_1921" cx="0" cy="0" r="1" gradientUnits="userSpaceOnUse" gradientTransform="translate(18.2745 24.1176) rotate(132.387) scale(6.50225)">
<stop stop-color="#FF46AA"/>
<stop offset="1" stop-color="#E3189D"/>
</radialGradient>
<radialGradient id="paint19_radial_1899_1921" cx="0" cy="0" r="1" gradientUnits="userSpaceOnUse" gradientTransform="translate(17.158 26.2856) rotate(-173.29) scale(5.90913 7.90825)">
<stop offset="0.522105" stop-color="#B63173" stop-opacity="0"/>
<stop offset="1" stop-color="#B63173"/>
</radialGradient>
<linearGradient id="paint20_linear_1899_1921" x1="60.1655" y1="6.56885" x2="46.0196" y2="40.4722" gradientUnits="userSpaceOnUse">
<stop stop-color="#20B2EE"/>
<stop offset="1" stop-color="#2689DA"/>
</linearGradient>
<radialGradient id="paint21_radial_1899_1921" cx="0" cy="0" r="1" gradientUnits="userSpaceOnUse" gradientTransform="translate(57.0606 17.5823) rotate(128.217) scale(24.4945 14.9827)">
<stop offset="0.80204" stop-color="#4274D2" stop-opacity="0"/>
<stop offset="0.950917" stop-color="#4274D2"/>
</radialGradient>
<radialGradient id="paint22_radial_1899_1921" cx="0" cy="0" r="1" gradientUnits="userSpaceOnUse" gradientTransform="translate(55.8353 14.7455) rotate(12.0948) scale(3.53052 11.8522)">
<stop stop-color="#4D8EC0"/>
<stop offset="1" stop-color="#4D8EC0" stop-opacity="0"/>
</radialGradient>
<radialGradient id="paint23_radial_1899_1921" cx="0" cy="0" r="1" gradientUnits="userSpaceOnUse" gradientTransform="translate(62.8382 7.10151) rotate(141.953) scale(4.32103 3.8849)">
<stop stop-color="#5ADEFF"/>
<stop offset="1" stop-color="#5ADEFF" stop-opacity="0"/>
</radialGradient>
<radialGradient id="paint24_radial_1899_1921" cx="0" cy="0" r="1" gradientUnits="userSpaceOnUse" gradientTransform="translate(35.4179 79.1528) rotate(133.21) scale(13.3974 29.3326)">
<stop stop-color="#3365FF"/>
<stop offset="1" stop-color="#356DB9"/>
</radialGradient>
<radialGradient id="paint25_radial_1899_1921" cx="0" cy="0" r="1" gradientUnits="userSpaceOnUse" gradientTransform="translate(23.3845 88.4243) rotate(131.598) scale(8.26991 20.9194)">
<stop stop-color="#3365FF"/>
<stop offset="1" stop-color="#356DB9"/>
</radialGradient>
<radialGradient id="paint26_radial_1899_1921" cx="0" cy="0" r="1" gradientUnits="userSpaceOnUse" gradientTransform="translate(86.9046 37.5299) rotate(168.283) scale(13.5988 5.07341)">
<stop stop-color="#FF3BA9"/>
<stop offset="1" stop-color="#F422A7"/>
</radialGradient>
<radialGradient id="paint27_radial_1899_1921" cx="0" cy="0" r="1" gradientUnits="userSpaceOnUse" gradientTransform="translate(77.0663 48.3795) rotate(-127.355) scale(14.0213 24.9889)">
<stop offset="0.752144" stop-color="#B8306F" stop-opacity="0"/>
<stop offset="1" stop-color="#B8306F"/>
</radialGradient>
<radialGradient id="paint28_radial_1899_1921" cx="0" cy="0" r="1" gradientUnits="userSpaceOnUse" gradientTransform="translate(53.741 29.4838) rotate(-131.325) scale(9.2943 6.94758)">
<stop stop-color="#336BAF"/>
<stop offset="1" stop-color="#336BAF" stop-opacity="0"/>
</radialGradient>
<radialGradient id="paint29_radial_1899_1921" cx="0" cy="0" r="1" gradientUnits="userSpaceOnUse" gradientTransform="translate(54.6332 23.5237) rotate(-127.657) scale(5.85519 2.37226)">
<stop stop-color="#49A4D4"/>
<stop offset="1" stop-color="#49A4D4" stop-opacity="0"/>
</radialGradient>
<linearGradient id="paint30_linear_1899_1921" x1="45.6113" y1="68.4744" x2="87.932" y2="57.3839" gradientUnits="userSpaceOnUse">
<stop stop-color="#3797E2"/>
<stop offset="1" stop-color="#37AEFF"/>
</linearGradient>
<radialGradient id="paint31_radial_1899_1921" cx="0" cy="0" r="1" gradientTransform="matrix(-16.1344 -19.3398 48.4776 -40.4455 61.2655 75.3946)" gradientUnits="userSpaceOnUse">
<stop offset="0.622552" stop-color="#526579" stop-opacity="0"/>
<stop offset="0.962126" stop-color="#526579"/>
</radialGradient>
<radialGradient id="paint32_radial_1899_1921" cx="0" cy="0" r="1" gradientTransform="matrix(-0.663055 8.62 -17.33 -1.33312 75.4107 61.8016)" gradientUnits="userSpaceOnUse">
<stop offset="0.396078" stop-color="#6972FF"/>
<stop offset="1" stop-color="#6972FF" stop-opacity="0"/>
</radialGradient>
<radialGradient id="paint33_radial_1899_1921" cx="0" cy="0" r="1" gradientTransform="matrix(0.856447 -2.21026 1.74299 0.67543 88.2298 54.5353)" gradientUnits="userSpaceOnUse">
<stop stop-color="#55BFFF"/>
<stop offset="1" stop-color="#55BFFF" stop-opacity="0"/>
</radialGradient>
<radialGradient id="paint34_radial_1899_1921" cx="0" cy="0" r="1" gradientTransform="matrix(-3.77855 22.7646 -8.52978 -1.41539 34.2253 20.3143)" gradientUnits="userSpaceOnUse">
<stop stop-color="#FF3AAA"/>
<stop offset="1" stop-color="#FD2F89"/>
</radialGradient>
<radialGradient id="paint35_radial_1899_1921" cx="0" cy="0" r="1" gradientTransform="matrix(12.9857 7.85574 -24.6572 40.7469 22.1754 44.1098)" gradientUnits="userSpaceOnUse">
<stop offset="0.803698" stop-color="#DB2C6E" stop-opacity="0"/>
<stop offset="1" stop-color="#DB2C6E"/>
</radialGradient>
<radialGradient id="paint36_radial_1899_1921" cx="0" cy="0" r="1" gradientUnits="userSpaceOnUse" gradientTransform="translate(56.3197 35.8946) rotate(98.0559) scale(11.1649 6.21374)">
<stop stop-color="#4AB5F8"/>
<stop offset="1" stop-color="#4AB5F8" stop-opacity="0"/>
</radialGradient>
</defs>
</svg>
