<svg width="20" height="20" viewBox="0 0 20 20" fill="none" xmlns="http://www.w3.org/2000/svg">
<path d="M9.99967 2C5.21301 2 1.33301 5.28333 1.33301 9.33333C1.33301 11.5787 2.52856 13.5857 4.40723 14.931C4.45519 15.955 4.29653 17.3689 2.88379 18.0208L2.88118 18.0221C2.81807 18.0461 2.76373 18.0887 2.72536 18.1443C2.687 18.1999 2.66641 18.2658 2.66634 18.3333C2.66634 18.4217 2.70146 18.5065 2.76397 18.569C2.82648 18.6315 2.91127 18.6667 2.99967 18.6667C3.00763 18.6667 3.01517 18.6654 3.02311 18.6654C3.02485 18.6654 3.02658 18.6654 3.02832 18.6654C4.651 18.655 6.02852 17.778 6.97884 16.8516C7.28017 16.5576 7.70026 16.4129 8.11426 16.4909C8.72092 16.6062 9.35167 16.6667 9.99967 16.6667C14.7863 16.6667 18.6663 13.3833 18.6663 9.33333C18.6663 5.28333 14.7863 2 9.99967 2Z" fill="#230E00"/>
</svg>
