<svg width="171" height="45" viewBox="0 0 171 45" fill="none" xmlns="http://www.w3.org/2000/svg">
<path d="M23.8476 43.8725C23.7213 43.8725 23.595 43.8761 23.4687 43.8761H22.2561C17.0954 43.8761 13.205 43.3023 10.3648 42.1258C6.33723 40.4585 5.16434 37.6471 4.88646 35.6045H1.81889V26.2069H0V14.3878L4.27655 14.3408L2.80412 2.95836L18.0914 2.2041V6.4987L42.6681 4.67981L41.1632 13.933L45.5805 13.8861L43.8446 26.2141H43.3465L41.9643 35.6117H39.6258C39.3154 37.9828 37.9945 39.9388 35.7678 41.3066C33.6999 42.5769 30.9572 43.36 27.3916 43.6957L23.8368 44.0313L23.844 43.8797L23.8476 43.8725Z" fill="white"/>
<path d="M70.6334 43.444V43.0109H59.4169V27.5143C59.4169 25.9119 59.1931 25.2298 59.1029 25.0169C59.0235 24.988 58.8683 24.9483 58.6049 24.9267L57.9553 43.0145H44.5627V16.3772H41.791V4.1358L50.29 4.00949L50.1637 0.786741L65.5376 0L64.8194 3.76769L70.6298 3.66304V2.51541L85.3144 1.76114L84.0404 43.4476H70.6334V43.444ZM69.9152 16.3772C70.074 16.5613 70.2256 16.7489 70.3699 16.9474C70.4601 17.0701 70.5468 17.1964 70.6334 17.3227V16.3772H69.9152Z" fill="white"/>
<path d="M111.775 43.4433V43.0102H100.559V26.2144C100.559 24.612 100.335 23.9299 100.245 23.717C100.169 23.6918 100.028 23.6521 99.7898 23.6304L99.0969 43.0102H85.7043V15.0773H82.9326V2.83951L115.492 2.29817V2.31982L126.456 1.75684L125.182 43.4433H111.775ZM111.057 15.0773C111.216 15.2614 111.367 15.449 111.512 15.6475C111.602 15.7702 111.688 15.8965 111.775 16.0228V15.0773H111.057Z" fill="white"/>
<path d="M124.608 2.84672L155.32 2.29817V2.31982L166.302 1.75684L165.869 15.6944L170.25 15.4598L168.55 28.3761H165.461L165.028 43.4469H151.614V43.0138H140.397V42.2884L126.146 43.7681L124.604 2.85033L124.608 2.84672ZM139.35 28.9535L140.401 28.5566V15.0773H139.35V28.9535Z" fill="white"/>
<path d="M3.06738 17.4223L18.3114 17.249V15.5601L7.57129 15.9065L6.27209 5.85934L15.0201 5.42627V9.80026L39.0121 8.02468L37.8861 14.9538L26.4964 15.3002L26.1066 17.1624L42.0435 16.9892L41.1774 23.1388H3.06738V17.4223ZM4.88627 27.0797L18.4413 26.9065L18.3114 24.7411L26.7562 24.3081L26.1066 26.8199L40.1813 26.6466L39.3152 32.5364H35.9373C36.3992 33.1426 36.6302 33.7922 36.6302 34.4852C36.6302 36.2752 35.8074 37.6754 34.1617 38.6859C32.516 39.6964 30.163 40.346 27.1027 40.6347L27.3192 36.8237L24.6342 40.7647C24.2589 40.7935 23.8691 40.808 23.4649 40.808H22.2523C17.5463 40.808 13.9735 40.3027 11.5339 39.2922C9.09425 38.2817 7.87444 36.6794 7.87444 34.4852C7.87444 33.7634 8.09098 33.1138 8.52405 32.5364H4.88627V27.0797ZM22.2523 35.1348C23.5804 35.1348 24.6847 35.1131 25.5653 35.0698C26.4459 35.0265 27.146 34.9543 27.6657 34.8533C28.1854 34.7522 28.5462 34.6223 28.7483 34.4635C28.9504 34.3047 29.0515 34.0954 29.0515 33.8356C29.0515 33.6335 28.9721 33.453 28.8133 33.2942C28.6545 33.1354 28.3658 33.0055 27.9472 32.9045C27.5285 32.8034 26.98 32.724 26.3015 32.6663C25.623 32.6085 24.7641 32.5652 23.7247 32.5364H20.7366C18.6867 32.5941 17.2937 32.7168 16.5575 32.9045C15.8212 33.0921 15.4531 33.4025 15.4531 33.8356C15.4531 34.0954 15.5542 34.3047 15.7563 34.4635C15.9584 34.6223 16.3193 34.7522 16.839 34.8533C17.3586 34.9543 18.0515 35.0265 18.9177 35.0698C19.7838 35.1131 20.8954 35.1348 22.2523 35.1348Z" fill="#FF333F"/>
<path d="M44.8584 7.15787L53.4765 7.02795L53.3465 3.69332L61.7914 3.26025L61.0985 6.89803L70.8425 6.7248L69.9764 13.3074H55.9883L55.7284 19.8035L58.2835 15.7759H59.756C61.8636 15.7759 63.567 16.0286 64.8662 16.5338C66.1654 17.039 67.1759 17.7825 67.8976 18.7641C68.6194 19.7457 69.103 20.9655 69.3484 22.4235C69.5938 23.8815 69.7165 25.5633 69.7165 27.4688V39.9411H62.4843V27.5121C62.4843 25.4334 62.1667 23.9681 61.5315 23.1164C60.8964 22.2647 59.7848 21.8389 58.1969 21.8389H55.6418L54.9922 39.9411H47.63V13.3074H44.8584V7.15787ZM73.7008 40.3742V5.4256L82.1456 4.99253L81.0629 40.3742H73.7008Z" fill="#FF333F"/>
<path d="M86 5.85979L111.984 5.42672L111.118 12.0094H97.1299L96.87 18.4621L99.4251 14.4778H100.898C103.005 14.4778 104.709 14.7305 106.008 15.2357C107.307 15.741 108.317 16.4844 109.039 17.466C109.761 18.4476 110.245 19.6675 110.49 21.1254C110.735 22.5834 110.858 24.2652 110.858 26.1707V39.9423H103.626V26.214C103.626 24.1353 103.308 22.6701 102.673 21.8184C102.038 20.9667 100.926 20.5408 99.3385 20.5408H96.8267L96.1338 39.9423H88.7716V12.0094H86V5.85979ZM114.842 40.3753V5.42672L123.287 4.99365L122.205 40.3753H114.842Z" fill="#FF333F"/>
<path d="M143.468 39.9423V32.7966L140.35 39.2061L129.09 40.3753L127.791 5.85979L152.086 5.42672L150.311 39.9423H143.468ZM136.279 12.0094V33.4029L143.468 30.6746V12.0094H136.279ZM154.685 40.3753V5.42672L163.129 4.99365L162.696 18.9385L166.724 18.7219L165.858 25.3046H162.48L162.047 40.3753H154.685Z" fill="#FF333F"/>
</svg>
