<svg width="40" height="40" viewBox="0 0 40 40" fill="none" xmlns="http://www.w3.org/2000/svg">
<g clip-path="url(#clip0_1467_1058)">
<path d="M32.3516 16.1473H11.3994C10.5286 15.1074 9.2177 14.4453 7.75464 14.4453C5.12955 14.4453 3.00293 16.5671 3.00293 19.1862C3.00293 20.4683 3.51435 21.6277 4.34299 22.4835V32.3625C4.34299 34.9235 6.42429 37 8.99112 37H32.3548C34.9216 37 37.0029 34.9235 37.0029 32.3625V20.7848C37.0029 18.2238 34.9216 16.1473 32.3548 16.1473H32.3516Z" fill="#FFBFC0"/>
<path d="M20.6701 18.0365C23.5411 18.0365 25.8685 15.7144 25.8685 12.8499C25.8685 9.98549 23.5411 7.66339 20.6701 7.66339C17.7991 7.66339 15.4717 9.98549 15.4717 12.8499C15.4717 15.7144 17.7991 18.0365 20.6701 18.0365Z" fill="#FF0A0A"/>
<path d="M20.6696 8.8712C20.2229 8.8712 19.8604 8.5095 19.8604 8.06383C19.8604 5.27356 22.1359 3 24.9358 3H25.622C26.0687 3 26.4312 3.3617 26.4312 3.80737C26.4312 4.25304 26.0687 4.61474 25.622 4.61474H24.9358C23.0292 4.61474 21.4788 6.16166 21.4788 8.06383C21.4788 8.5095 21.1163 8.8712 20.6696 8.8712Z" fill="#FF0A0A"/>
<path d="M33.4165 22.6255H13.2411C11.2634 22.6255 9.66113 24.2241 9.66113 26.1974V33.4217C9.66113 35.3949 11.2634 36.9935 13.2411 36.9935H32.3515C34.9184 36.9935 36.9997 34.917 36.9997 32.356V26.1941C36.9997 24.2209 35.3974 22.6223 33.4197 22.6223L33.4165 22.6255Z" fill="#FF4D4D"/>
<path d="M36.9997 28.2029H9.66113V31.4259H36.9997V28.2029Z" fill="#FFBFC0"/>
</g>
<defs>
<clipPath id="clip0_1467_1058">
<rect width="34" height="34" fill="white" transform="translate(3 3)"/>
</clipPath>
</defs>
</svg>
