<svg width="57" height="57" viewBox="0 0 57 57" fill="none" xmlns="http://www.w3.org/2000/svg">
<g clip-path="url(#clip0_1467_1059)">
<path d="M40.2961 21.9123C39.7079 21.3241 38.7504 21.3245 38.1585 21.9164L34.4193 25.6556C34.2245 25.8504 33.9053 25.8792 33.7008 25.6955C33.4844 25.5 33.4777 25.1631 33.6829 24.9578L37.4072 21.2336C37.9961 20.6446 38.0425 19.6796 37.4663 19.0825C36.89 18.4854 35.9073 18.4695 35.3109 19.0659L31.5718 22.805C31.3769 22.9998 31.0577 23.0287 30.8532 22.845C30.6369 22.6495 30.6301 22.3125 30.8353 22.1073L34.5596 18.383C35.1486 17.794 35.195 16.8291 34.6187 16.2319C34.0424 15.6348 33.0597 15.6189 32.4633 16.2153L26.7223 21.9564C26.4604 22.2894 25.7102 23.3389 25.7013 24.8501C25.6947 25.9708 26.0998 26.8043 26.3202 27.1913C26.4462 27.3172 26.4354 27.5236 26.2986 27.6367L14.1349 37.6965C13.0034 38.6324 12.9231 40.2447 13.9573 41.2788C14.3448 41.9757 14.9777 42.5134 15.7431 42.7791C17.0337 43.2279 18.4715 42.7797 19.3434 41.7241L28.8691 30.2072C28.9822 30.0704 29.1885 30.0596 29.3145 30.1856C29.7015 30.406 30.5365 30.8096 31.6557 30.8045C33.1699 30.7956 34.2164 30.0454 34.5494 29.7835L40.2904 24.0425C40.8809 23.452 40.8842 22.4945 40.2946 21.9049L40.2961 21.9123Z" fill="#FFDBB7"/>
<path d="M22.3576 14.8647C21.6012 14.1083 21.0888 13.1007 20.9639 11.9524C20.6728 9.27242 22.6111 6.85528 25.2922 6.55386C27.5644 6.29867 30.5715 7.52862 32.1602 8.28336C34.3444 9.32045 37.7008 11.2894 41.2796 14.7662C47.8241 21.1251 50.2929 28.2114 49.9563 31.2179C49.6549 33.899 47.2377 35.8373 44.5596 35.5481C42.0886 35.2803 40.2553 33.2103 40.22 30.7861C40.074 30.1339 39.0294 26.216 34.462 21.787C30.397 17.8386 26.7505 16.5008 25.755 16.2919C24.4447 16.2818 23.2354 15.7462 22.3557 14.8665L22.3576 14.8647ZM40.2503 30.1645C40.2503 30.1645 40.2484 30.1699 40.2502 30.1718C40.2502 30.1718 40.2521 30.1663 40.2503 30.1645ZM26.3457 16.2599C26.3457 16.2599 26.342 16.2599 26.3384 16.2599C26.3384 16.2599 26.3439 16.2581 26.3457 16.2599Z" fill="#FF9D77"/>
<path d="M41.2787 14.7677C37.6962 11.2909 34.3416 9.32376 32.1592 8.28485C31.4057 7.9283 30.3326 7.46332 29.172 7.10029L27.6608 8.61159C26.8924 9.37998 26.7936 10.6323 27.5135 11.4432C28.2933 12.325 29.6416 12.3514 30.4647 11.5284L31.1966 10.7964C31.6519 10.3412 32.3861 10.3398 32.8395 10.7932C33.293 11.2467 33.2915 11.9809 32.8363 12.4361C32.25 13.0224 32.25 13.9692 32.8322 14.5515L34.2923 16.0116C34.9562 16.6754 36.0357 16.6733 36.7021 16.0069C37.3048 15.4042 38.2789 15.4023 38.8792 16.0027C39.4796 16.603 39.4777 17.5771 38.875 18.1798L37.9992 19.0557C37.5859 19.469 37.5846 20.1378 37.9963 20.5495L41.9667 24.5199C42.3785 24.9316 43.0472 24.9303 43.4606 24.517C43.9777 23.9999 44.8173 23.9983 45.3324 24.5134C45.8475 25.0285 45.8459 25.8681 45.3288 26.3852L43.69 28.024C43.5389 28.1751 43.4549 28.3824 43.4599 28.5951C43.508 31.0065 45.822 31.6127 47.0202 30.4146L49.5602 27.8745C48.6075 24.3326 46.0093 19.36 41.2787 14.7677Z" fill="#FF523E"/>
</g>
<defs>
<clipPath id="clip0_1467_1059">
<rect width="38.1848" height="41.7334" fill="white" transform="translate(29.5098) rotate(45)"/>
</clipPath>
</defs>
</svg>
