<svg width="40" height="40" viewBox="0 0 40 40" fill="none" xmlns="http://www.w3.org/2000/svg">
<path d="M20.25 29.5175V37.2502" stroke="#FF553E" stroke-width="3.56897"/>
<path d="M26.793 36.0604L13.7068 36.0604" stroke="#FF553E" stroke-width="3.56897"/>
<path d="M10.1379 8.69818H3V15.8361C3 17.6206 4.18966 20.5947 6.56897 21.7844C7.99086 22.4953 10.5345 22.555 10.7328 22.3792" stroke="#FFCBBF" stroke-width="3"/>
<path d="M30.3621 8.69818H37.5V15.8361C37.5 17.6206 36.3103 20.5947 33.931 21.7844C32.5091 22.4953 29.9655 22.555 29.7672 22.3792" stroke="#FFCBBF" stroke-width="3"/>
<path d="M7.75879 5.12919C7.75879 3.81513 8.82404 2.74988 10.1381 2.74988H30.3622C31.6763 2.74988 32.7415 3.81513 32.7415 5.12919V18.2154C32.7415 24.7857 27.4153 30.1119 20.845 30.1119H19.6553C13.085 30.1119 7.75879 24.7857 7.75879 18.2154V5.12919Z" fill="#FFCBBF"/>
<path d="M22.2615 9.98753V22.2457L19.7299 22.2124V12.619L16.9818 13.9015L16.0824 11.703L19.7465 9.98753H22.2615Z" fill="#FF553E"/>
</svg>
