<svg width="20" height="20" viewBox="0 0 20 20" fill="none" xmlns="http://www.w3.org/2000/svg">
<g clip-path="url(#clip0_1467_779)">
<path d="M20 9.37265C19.8794 7.42267 19.1909 5.55057 18.0193 3.98717C16.8477 2.42377 15.2441 1.23739 13.4064 0.574312C11.5687 -0.0887697 9.57705 -0.199573 7.6771 0.255562C5.77715 0.710697 4.05192 1.71187 2.71409 3.13566C1.37626 4.55946 0.484331 6.34362 0.148249 8.2682C-0.187833 10.1928 0.0466277 12.1736 0.822728 13.9666C1.59883 15.7595 2.88264 17.2861 4.51589 18.3583C6.14914 19.4304 8.06043 20.0011 10.0141 20.0001L15.8333 20.0001C16.938 19.999 17.9972 19.5597 18.7784 18.7785C19.5595 17.9974 19.9989 16.9382 20 15.8335L20 9.37265ZM18.3333 15.8335C18.3333 16.4965 18.0699 17.1324 17.6011 17.6012C17.1322 18.0701 16.4963 18.3335 15.8333 18.3335L10.0141 18.3335C8.83824 18.333 7.67567 18.0846 6.60221 17.6046C5.52876 17.1246 4.56853 16.4237 3.78413 15.5476C2.99594 14.672 2.40407 13.638 2.04821 12.515C1.69235 11.3919 1.58071 10.2057 1.7208 9.03598C1.94199 7.19093 2.77095 5.47197 4.077 4.15009C5.38304 2.8282 7.09188 1.97857 8.93413 1.73515C9.29349 1.69011 9.65529 1.66729 10.0175 1.66682C11.9595 1.66152 13.8415 2.34007 15.3333 3.58348C16.2046 4.3076 16.9197 5.20111 17.4354 6.20984C17.9511 7.21857 18.2566 8.32152 18.3333 9.45182L18.3333 15.8335Z" fill="#CDD1DB"/>
<path d="M6.66634 7.49987L9.99967 7.49987C10.2207 7.49987 10.4326 7.41207 10.5889 7.25579C10.7452 7.09951 10.833 6.88755 10.833 6.66654C10.833 6.44552 10.7452 6.23356 10.5889 6.07728C10.4326 5.921 10.2207 5.83321 9.99967 5.83321L6.66634 5.83321C6.44533 5.83321 6.23337 5.921 6.07709 6.07728C5.92081 6.23356 5.83301 6.44552 5.83301 6.66654C5.83301 6.88755 5.92081 7.09951 6.07709 7.25579C6.23337 7.41207 6.44533 7.49987 6.66634 7.49987Z" fill="#CDD1DB"/>
<path d="M13.333 9.16679L6.66634 9.16679C6.44533 9.16679 6.23337 9.25459 6.07709 9.41087C5.92081 9.56715 5.83301 9.77912 5.83301 10.0001C5.83301 10.2211 5.92081 10.4331 6.07709 10.5894C6.23337 10.7457 6.44533 10.8335 6.66634 10.8335L13.333 10.8335C13.554 10.8335 13.766 10.7457 13.9223 10.5894C14.0785 10.4331 14.1663 10.2211 14.1663 10.0001C14.1663 9.77912 14.0785 9.56715 13.9223 9.41087C13.766 9.25459 13.554 9.16679 13.333 9.16679Z" fill="#CDD1DB"/>
<path d="M13.333 12.5L6.66634 12.5C6.44533 12.5 6.23337 12.5878 6.07709 12.7441C5.92081 12.9004 5.83301 13.1123 5.83301 13.3333C5.83301 13.5544 5.92081 13.7663 6.07709 13.9226C6.23337 14.0789 6.44533 14.1667 6.66634 14.1667L13.333 14.1667C13.554 14.1667 13.766 14.0789 13.9223 13.9226C14.0785 13.7663 14.1663 13.5544 14.1663 13.3333C14.1663 13.1123 14.0785 12.9004 13.9223 12.7441C13.766 12.5878 13.554 12.5 13.333 12.5Z" fill="#CDD1DB"/>
</g>
<defs>
<clipPath id="clip0_1467_779">
<rect width="20" height="20" fill="white"/>
</clipPath>
</defs>
</svg>
