<svg width="20" height="20" viewBox="0 0 20 20" fill="none" xmlns="http://www.w3.org/2000/svg">
<g clip-path="url(#clip0_1467_775)">
<path d="M11.6667 5.83359C11.6667 6.16323 11.569 6.48546 11.3858 6.75954C11.2027 7.03362 10.9424 7.24725 10.6379 7.37339C10.3333 7.49954 9.9982 7.53254 9.6749 7.46823C9.3516 7.40393 9.05463 7.24519 8.82154 7.0121C8.58845 6.77902 8.42972 6.48204 8.36541 6.15874C8.3011 5.83544 8.33411 5.50033 8.46025 5.19579C8.5864 4.89124 8.80002 4.63094 9.0741 4.44781C9.34818 4.26467 9.67042 4.16692 10.0001 4.16692C10.4421 4.16692 10.866 4.34252 11.1786 4.65508C11.4911 4.96764 11.6667 5.39156 11.6667 5.83359ZM14.1317 10.1536L11.5834 12.6794C11.3766 12.8879 11.1306 13.0534 10.8596 13.1663C10.5885 13.2792 10.2978 13.3373 10.0042 13.3373C9.7106 13.3373 9.41989 13.2792 9.14885 13.1663C8.87781 13.0534 8.63182 12.8879 8.42505 12.6794L5.87838 10.1669C4.78485 9.03956 4.17244 7.53121 4.17058 5.96062C4.16871 4.39002 4.77753 2.88022 5.86838 1.75026C6.40452 1.19633 7.04657 0.755869 7.75635 0.45506C8.46613 0.15425 9.22916 -0.000762939 10.0001 -0.000762939C10.7709 -0.000762939 11.534 0.15425 12.2438 0.45506C12.9535 0.755869 13.5956 1.19633 14.1317 1.75026C15.2209 2.87779 15.8297 4.38423 15.8297 5.95193C15.8297 7.51963 15.2209 9.02606 14.1317 10.1536ZM13.3334 5.83359C13.3334 5.17432 13.1379 4.52985 12.7716 3.98169C12.4053 3.43353 11.8848 3.00629 11.2757 2.75399C10.6666 2.5017 9.99635 2.43569 9.34975 2.56431C8.70315 2.69292 8.1092 3.01039 7.64303 3.47657C7.17685 3.94274 6.85938 4.53669 6.73077 5.18329C6.60215 5.82989 6.66816 6.50012 6.92045 7.1092C7.17274 7.71829 7.59999 8.23889 8.14815 8.60516C8.69631 8.97143 9.34078 9.16693 10.0001 9.16693C10.8841 9.16693 11.732 8.81574 12.3571 8.19061C12.9822 7.56549 13.3334 6.71765 13.3334 5.83359ZM17.2942 7.66692C16.9901 9.04421 16.3079 10.3094 15.3242 11.3203L12.7592 13.8644C12.3984 14.2262 11.9698 14.5133 11.4979 14.7093C11.026 14.9053 10.5202 15.0065 10.0092 15.0069C9.49854 15.0071 8.99282 14.9067 8.52096 14.7114C8.04911 14.516 7.62036 14.2297 7.25922 13.8686L4.70672 11.3494C3.736 10.3529 3.05472 9.11106 2.73588 7.75693C2.19463 7.95532 1.69974 8.26246 1.28172 8.65942C0.87426 9.04681 0.550363 9.51346 0.32995 10.0307C0.109538 10.5479 -0.00273094 11.1047 5.04432e-05 11.6669L5.04432e-05 15.0628C0.00180177 15.9639 0.294877 16.8403 0.835543 17.5611C1.37621 18.282 2.13548 18.8088 3.00005 19.0628L5.39172 19.8128C5.79344 19.9378 6.21183 20.001 6.63255 20.0003C7.01421 19.9998 7.39404 19.9476 7.76172 19.8453L12.5784 18.4203C13.0074 18.3027 13.4602 18.3027 13.8892 18.4203L15.8784 19.0869C16.3686 19.2063 16.8796 19.2127 17.3727 19.1059C17.8658 18.999 18.3282 18.7816 18.7251 18.47C19.122 18.1585 19.4429 17.7608 19.6638 17.3072C19.8846 16.8535 19.9996 16.3557 20.0001 15.8511L20.0001 11.5603C19.9972 10.7134 19.7369 9.88751 19.2536 9.19213C18.7703 8.49675 18.0869 7.96481 17.2942 7.66692Z" fill="#FF333F"/>
</g>
<defs>
<clipPath id="clip0_1467_775">
<rect width="20" height="20" fill="white"/>
</clipPath>
</defs>
</svg>
